<?xml version="1.0" encoding="utf-8"?>
<!-- Generator: Adobe Illustrator 18.1.0, SVG Export Plug-In . SVG Version: 6.00 Build 0)  -->
<svg version="1.1" xmlns="http://www.w3.org/2000/svg" x="0px" y="0px" viewBox="0 0 500 200">
  <path fill="#00004A" d="M114.6,123.1c0-15.5-9.3-28.3-25.7-28.3H71.7v56.5h17.2C105.3,151.3,114.6,138.6,114.6,123.1z M218.4,124.4
    c9.2,0,17.2-5.3,17.2-15.1c0-10.2-7.9-14.7-17.2-14.7h-11.6v29.8H218.4z M314.5,123.1c0-15.5-9.3-28.5-25.7-28.5
    c-16.4,0-25.7,13.1-25.7,28.5c0,15,8.7,27.8,24.5,28.4C304.6,152.1,314.5,139.1,314.5,123.1z" />
  <path fill="#00004A" d="M450,200H0V46h450V200z M122.1,108.3c-5.3-13.8-18.6-21.4-33.1-21.4h-27v72.4h27
    C115.6,159.2,131.5,132.8,122.1,108.3C120.4,103.8,123.8,112.7,122.1,108.3z M148.5,151.2v-24.7h28.2v-7.7h-28.2v-24h34.8v-8h-44.6
    v72.4h44.6l0.1-8H148.5z M197.1,86.8v72.4h9.7v-27.1h11.6c13.9,0,26.9-7.7,27-22.9c0.1-15.6-12.9-22.4-27-22.4H197.1z M322,108.1
    c-7.2-18.9-29.3-27-47.7-19.4c-18.8,7.8-25.4,31-18.5,49.2c7.2,18.9,29.3,26.8,47.6,19.3C322.3,149.6,328.9,126.3,322,108.1
    C320.3,103.6,323.7,112.7,322,108.1z M388.1,86.8h-57.2v8.2h23.7v64.1h9.8V95.1h23.7V86.8z M450,40l50-40H50L0,40H450z M455,196
    l45-36h-45V196z"/>
</svg>
